<svg width="70" height="24" viewBox="0 0 70 24" fill="none" xmlns="http://www.w3.org/2000/svg">
<path d="M0.517045 18V0.545454H4.20739V14.9574H11.6903V18H0.517045ZM19.9808 18.2557C18.657 18.2557 17.5121 17.9744 16.5462 17.4119C15.5859 16.8437 14.8445 16.054 14.3217 15.0426C13.799 14.0256 13.5376 12.8466 13.5376 11.5057C13.5376 10.1534 13.799 8.97159 14.3217 7.96023C14.8445 6.94318 15.5859 6.15341 16.5462 5.59091C17.5121 5.02273 18.657 4.73864 19.9808 4.73864C21.3047 4.73864 22.4467 5.02273 23.407 5.59091C24.3729 6.15341 25.1172 6.94318 25.6399 7.96023C26.1626 8.97159 26.424 10.1534 26.424 11.5057C26.424 12.8466 26.1626 14.0256 25.6399 15.0426C25.1172 16.054 24.3729 16.8437 23.407 17.4119C22.4467 17.9744 21.3047 18.2557 19.9808 18.2557ZM19.9979 15.4432C20.6001 15.4432 21.103 15.2727 21.5064 14.9318C21.9098 14.5852 22.2138 14.1136 22.4183 13.517C22.6286 12.9205 22.7337 12.2415 22.7337 11.4801C22.7337 10.7188 22.6286 10.0398 22.4183 9.44318C22.2138 8.84659 21.9098 8.375 21.5064 8.02841C21.103 7.68182 20.6001 7.50852 19.9979 7.50852C19.3899 7.50852 18.8786 7.68182 18.4638 8.02841C18.0547 8.375 17.745 8.84659 17.5348 9.44318C17.3303 10.0398 17.228 10.7188 17.228 11.4801C17.228 12.2415 17.3303 12.9205 17.5348 13.517C17.745 14.1136 18.0547 14.5852 18.4638 14.9318C18.8786 15.2727 19.3899 15.4432 19.9979 15.4432ZM34.6825 23.1818C33.5064 23.1818 32.4979 23.0199 31.657 22.696C30.8217 22.3778 30.157 21.9432 29.6626 21.392C29.1683 20.8409 28.8473 20.2216 28.6996 19.5341L32.0575 19.0824C32.1598 19.3438 32.3217 19.5881 32.5433 19.8153C32.7649 20.0426 33.0575 20.2244 33.4212 20.3608C33.7905 20.5028 34.2393 20.5739 34.7678 20.5739C35.5575 20.5739 36.2081 20.3807 36.7195 19.9943C37.2365 19.6136 37.495 18.9744 37.495 18.0767V15.6818H37.3416C37.1825 16.0455 36.9439 16.3892 36.6257 16.7131C36.3075 17.0369 35.8984 17.3011 35.3984 17.5057C34.8984 17.7102 34.3018 17.8125 33.6087 17.8125C32.6257 17.8125 31.7308 17.5852 30.924 17.1307C30.1229 16.6705 29.4837 15.9687 29.0064 15.0256C28.5348 14.0767 28.299 12.8778 28.299 11.429C28.299 9.94602 28.5405 8.70739 29.0234 7.71307C29.5064 6.71875 30.1484 5.97443 30.9496 5.48011C31.7564 4.9858 32.6399 4.73864 33.6001 4.73864C34.3331 4.73864 34.9467 4.86364 35.4411 5.11364C35.9354 5.35795 36.3331 5.66477 36.6342 6.03409C36.9411 6.39773 37.1768 6.75568 37.3416 7.10795H37.478V4.90909H41.0831V18.1278C41.0831 19.2415 40.8104 20.1733 40.2649 20.9233C39.7195 21.6733 38.9638 22.2358 37.9979 22.6108C37.0376 22.9915 35.9325 23.1818 34.6825 23.1818ZM34.7592 15.0852C35.3445 15.0852 35.8388 14.9403 36.2422 14.6506C36.6513 14.3551 36.9638 13.9347 37.1797 13.3892C37.4013 12.8381 37.5121 12.179 37.5121 11.4119C37.5121 10.6449 37.4041 9.98011 37.1882 9.41761C36.9723 8.84943 36.6598 8.40909 36.2507 8.09659C35.8416 7.78409 35.3445 7.62784 34.7592 7.62784C34.1626 7.62784 33.6598 7.78977 33.2507 8.11364C32.8416 8.43182 32.532 8.875 32.3217 9.44318C32.1115 10.0114 32.0064 10.6676 32.0064 11.4119C32.0064 12.1676 32.1115 12.821 32.3217 13.3722C32.5376 13.9176 32.8473 14.3409 33.2507 14.642C33.6598 14.9375 34.1626 15.0852 34.7592 15.0852ZM49.8871 18.2557C48.5632 18.2557 47.4183 17.9744 46.4524 17.4119C45.4922 16.8437 44.7507 16.054 44.228 15.0426C43.7053 14.0256 43.4439 12.8466 43.4439 11.5057C43.4439 10.1534 43.7053 8.97159 44.228 7.96023C44.7507 6.94318 45.4922 6.15341 46.4524 5.59091C47.4183 5.02273 48.5632 4.73864 49.8871 4.73864C51.2109 4.73864 52.353 5.02273 53.3132 5.59091C54.2791 6.15341 55.0234 6.94318 55.5462 7.96023C56.0689 8.97159 56.3303 10.1534 56.3303 11.5057C56.3303 12.8466 56.0689 14.0256 55.5462 15.0426C55.0234 16.054 54.2791 16.8437 53.3132 17.4119C52.353 17.9744 51.2109 18.2557 49.8871 18.2557ZM49.9041 15.4432C50.5064 15.4432 51.0092 15.2727 51.4126 14.9318C51.8161 14.5852 52.12 14.1136 52.3246 13.517C52.5348 12.9205 52.6399 12.2415 52.6399 11.4801C52.6399 10.7188 52.5348 10.0398 52.3246 9.44318C52.12 8.84659 51.8161 8.375 51.4126 8.02841C51.0092 7.68182 50.5064 7.50852 49.9041 7.50852C49.2962 7.50852 48.7848 7.68182 48.37 8.02841C47.9609 8.375 47.6513 8.84659 47.4411 9.44318C47.2365 10.0398 47.1342 10.7188 47.1342 11.4801C47.1342 12.2415 47.2365 12.9205 47.4411 13.517C47.6513 14.1136 47.9609 14.5852 48.37 14.9318C48.7848 15.2727 49.2962 15.4432 49.9041 15.4432ZM69.5831 8.64205L66.2592 8.84659C66.2024 8.5625 66.0803 8.30682 65.8928 8.07955C65.7053 7.84659 65.4581 7.66193 65.1513 7.52557C64.8501 7.38352 64.4893 7.3125 64.0689 7.3125C63.5064 7.3125 63.032 7.43182 62.6456 7.67045C62.2592 7.90341 62.0661 8.21591 62.0661 8.60795C62.0661 8.92045 62.1911 9.18466 62.4411 9.40057C62.6911 9.61648 63.12 9.78977 63.728 9.92045L66.0973 10.3977C67.37 10.6591 68.3189 11.0795 68.9439 11.6591C69.5689 12.2386 69.8814 13 69.8814 13.9432C69.8814 14.8011 69.6286 15.554 69.1229 16.2017C68.6229 16.8494 67.9354 17.3551 67.0604 17.7188C66.1911 18.0767 65.1882 18.2557 64.0518 18.2557C62.3189 18.2557 60.9382 17.8949 59.9098 17.1733C58.8871 16.446 58.2876 15.4574 58.1115 14.2074L61.6825 14.0199C61.7905 14.5483 62.0518 14.9517 62.4666 15.2301C62.8814 15.5028 63.4126 15.6392 64.0604 15.6392C64.6967 15.6392 65.2081 15.517 65.5945 15.2727C65.9865 15.0227 66.1854 14.7017 66.1911 14.3097C66.1854 13.9801 66.0462 13.7102 65.7734 13.5C65.5007 13.2841 65.0803 13.1193 64.5121 13.0057L62.245 12.554C60.9666 12.2983 60.0149 11.8551 59.3899 11.2244C58.7706 10.5937 58.4609 9.78977 58.4609 8.8125C58.4609 7.97159 58.6882 7.24716 59.1428 6.6392C59.603 6.03125 60.2479 5.5625 61.0774 5.23295C61.9126 4.90341 62.8899 4.73864 64.0092 4.73864C65.6626 4.73864 66.9638 5.08807 67.9126 5.78693C68.8672 6.4858 69.424 7.4375 69.5831 8.64205Z" fill="white"/>
</svg>
