<svg width="86" height="29" viewBox="0 0 86 29" fill="none" xmlns="http://www.w3.org/2000/svg">
<path d="M1.51705 23V5.54545H5.20739V19.9574H12.6903V23H1.51705ZM20.9808 23.2557C19.657 23.2557 18.5121 22.9744 17.5462 22.4119C16.5859 21.8437 15.8445 21.054 15.3217 20.0426C14.799 19.0256 14.5376 17.8466 14.5376 16.5057C14.5376 15.1534 14.799 13.9716 15.3217 12.9602C15.8445 11.9432 16.5859 11.1534 17.5462 10.5909C18.5121 10.0227 19.657 9.73864 20.9808 9.73864C22.3047 9.73864 23.4467 10.0227 24.407 10.5909C25.3729 11.1534 26.1172 11.9432 26.6399 12.9602C27.1626 13.9716 27.424 15.1534 27.424 16.5057C27.424 17.8466 27.1626 19.0256 26.6399 20.0426C26.1172 21.054 25.3729 21.8437 24.407 22.4119C23.4467 22.9744 22.3047 23.2557 20.9808 23.2557ZM20.9979 20.4432C21.6001 20.4432 22.103 20.2727 22.5064 19.9318C22.9098 19.5852 23.2138 19.1136 23.4183 18.517C23.6286 17.9205 23.7337 17.2415 23.7337 16.4801C23.7337 15.7188 23.6286 15.0398 23.4183 14.4432C23.2138 13.8466 22.9098 13.375 22.5064 13.0284C22.103 12.6818 21.6001 12.5085 20.9979 12.5085C20.3899 12.5085 19.8786 12.6818 19.4638 13.0284C19.0547 13.375 18.745 13.8466 18.5348 14.4432C18.3303 15.0398 18.228 15.7188 18.228 16.4801C18.228 17.2415 18.3303 17.9205 18.5348 18.517C18.745 19.1136 19.0547 19.5852 19.4638 19.9318C19.8786 20.2727 20.3899 20.4432 20.9979 20.4432ZM35.6825 28.1818C34.5064 28.1818 33.4979 28.0199 32.657 27.696C31.8217 27.3778 31.157 26.9432 30.6626 26.392C30.1683 25.8409 29.8473 25.2216 29.6996 24.5341L33.0575 24.0824C33.1598 24.3438 33.3217 24.5881 33.5433 24.8153C33.7649 25.0426 34.0575 25.2244 34.4212 25.3608C34.7905 25.5028 35.2393 25.5739 35.7678 25.5739C36.5575 25.5739 37.2081 25.3807 37.7195 24.9943C38.2365 24.6136 38.495 23.9744 38.495 23.0767V20.6818H38.3416C38.1825 21.0455 37.9439 21.3892 37.6257 21.7131C37.3075 22.0369 36.8984 22.3011 36.3984 22.5057C35.8984 22.7102 35.3018 22.8125 34.6087 22.8125C33.6257 22.8125 32.7308 22.5852 31.924 22.1307C31.1229 21.6705 30.4837 20.9687 30.0064 20.0256C29.5348 19.0767 29.299 17.8778 29.299 16.429C29.299 14.946 29.5405 13.7074 30.0234 12.7131C30.5064 11.7187 31.1484 10.9744 31.9496 10.4801C32.7564 9.9858 33.6399 9.73864 34.6001 9.73864C35.3331 9.73864 35.9467 9.86364 36.4411 10.1136C36.9354 10.358 37.3331 10.6648 37.6342 11.0341C37.9411 11.3977 38.1768 11.7557 38.3416 12.108H38.478V9.90909H42.0831V23.1278C42.0831 24.2415 41.8104 25.1733 41.2649 25.9233C40.7195 26.6733 39.9638 27.2358 38.9979 27.6108C38.0376 27.9915 36.9325 28.1818 35.6825 28.1818ZM35.7592 20.0852C36.3445 20.0852 36.8388 19.9403 37.2422 19.6506C37.6513 19.3551 37.9638 18.9347 38.1797 18.3892C38.4013 17.8381 38.5121 17.179 38.5121 16.4119C38.5121 15.6449 38.4041 14.9801 38.1882 14.4176C37.9723 13.8494 37.6598 13.4091 37.2507 13.0966C36.8416 12.7841 36.3445 12.6278 35.7592 12.6278C35.1626 12.6278 34.6598 12.7898 34.2507 13.1136C33.8416 13.4318 33.532 13.875 33.3217 14.4432C33.1115 15.0114 33.0064 15.6676 33.0064 16.4119C33.0064 17.1676 33.1115 17.821 33.3217 18.3722C33.5376 18.9176 33.8473 19.3409 34.2507 19.642C34.6598 19.9375 35.1626 20.0852 35.7592 20.0852ZM48.7053 23.2472C47.87 23.2472 47.1257 23.1023 46.4723 22.8125C45.8189 22.517 45.3018 22.0824 44.9212 21.5085C44.5462 20.929 44.3587 20.2074 44.3587 19.3438C44.3587 18.6165 44.4922 18.0057 44.7592 17.5114C45.0263 17.017 45.3899 16.6193 45.8501 16.3182C46.3104 16.017 46.8331 15.7898 47.4183 15.6364C48.0092 15.483 48.6286 15.375 49.2763 15.3125C50.0376 15.233 50.6513 15.1591 51.1172 15.0909C51.5831 15.017 51.9212 14.9091 52.1314 14.767C52.3416 14.625 52.4467 14.4148 52.4467 14.1364V14.0852C52.4467 13.5455 52.2763 13.1278 51.9354 12.8324C51.6001 12.5369 51.1229 12.3892 50.5036 12.3892C49.8501 12.3892 49.3303 12.5341 48.9439 12.8239C48.5575 13.108 48.3018 13.4659 48.1768 13.8977L44.8189 13.625C44.9893 12.8295 45.3246 12.142 45.8246 11.5625C46.3246 10.9773 46.9695 10.5284 47.7592 10.2159C48.5547 9.89773 49.4751 9.73864 50.5206 9.73864C51.2479 9.73864 51.9439 9.82386 52.6087 9.99432C53.2791 10.1648 53.8729 10.429 54.3899 10.7869C54.9126 11.1449 55.3246 11.6051 55.6257 12.1676C55.9268 12.7244 56.0774 13.392 56.0774 14.1705V23H52.6342V21.1847H52.532C52.3217 21.5938 52.0405 21.9545 51.6882 22.267C51.3359 22.5739 50.9126 22.8153 50.4183 22.9915C49.924 23.1619 49.353 23.2472 48.7053 23.2472ZM49.745 20.7415C50.2791 20.7415 50.7507 20.6364 51.1598 20.4261C51.5689 20.2102 51.8899 19.9205 52.1229 19.5568C52.3558 19.1932 52.4723 18.7812 52.4723 18.321V16.9318C52.3587 17.0057 52.2024 17.0739 52.0036 17.1364C51.8104 17.1932 51.5916 17.2472 51.3473 17.2983C51.103 17.3437 50.8587 17.3864 50.6143 17.4261C50.37 17.4602 50.1484 17.4915 49.9496 17.5199C49.5234 17.5824 49.1513 17.6818 48.8331 17.8182C48.5149 17.9545 48.2678 18.1392 48.0916 18.3722C47.9155 18.5994 47.8274 18.8835 47.8274 19.2244C47.8274 19.7188 48.0064 20.0966 48.3643 20.358C48.728 20.6136 49.1882 20.7415 49.745 20.7415ZM64.8089 23.2557C63.4851 23.2557 62.3402 22.9744 61.3743 22.4119C60.4141 21.8437 59.6726 21.054 59.1499 20.0426C58.6271 19.0256 58.3658 17.8466 58.3658 16.5057C58.3658 15.1534 58.6271 13.9716 59.1499 12.9602C59.6726 11.9432 60.4141 11.1534 61.3743 10.5909C62.3402 10.0227 63.4851 9.73864 64.8089 9.73864C66.1328 9.73864 67.2749 10.0227 68.2351 10.5909C69.201 11.1534 69.9453 11.9432 70.468 12.9602C70.9908 13.9716 71.2521 15.1534 71.2521 16.5057C71.2521 17.8466 70.9908 19.0256 70.468 20.0426C69.9453 21.054 69.201 21.8437 68.2351 22.4119C67.2749 22.9744 66.1328 23.2557 64.8089 23.2557ZM64.826 20.4432C65.4283 20.4432 65.9311 20.2727 66.3345 19.9318C66.7379 19.5852 67.0419 19.1136 67.2464 18.517C67.4567 17.9205 67.5618 17.2415 67.5618 16.4801C67.5618 15.7188 67.4567 15.0398 67.2464 14.4432C67.0419 13.8466 66.7379 13.375 66.3345 13.0284C65.9311 12.6818 65.4283 12.5085 64.826 12.5085C64.218 12.5085 63.7067 12.6818 63.2919 13.0284C62.8828 13.375 62.5732 13.8466 62.3629 14.4432C62.1584 15.0398 62.0561 15.7188 62.0561 16.4801C62.0561 17.2415 62.1584 17.9205 62.3629 18.517C62.5732 19.1136 62.8828 19.5852 63.2919 19.9318C63.7067 20.2727 64.218 20.4432 64.826 20.4432ZM84.505 13.642L81.1811 13.8466C81.1243 13.5625 81.0021 13.3068 80.8146 13.0795C80.6271 12.8466 80.38 12.6619 80.0732 12.5256C79.772 12.3835 79.4112 12.3125 78.9908 12.3125C78.4283 12.3125 77.9538 12.4318 77.5675 12.6705C77.1811 12.9034 76.9879 13.2159 76.9879 13.608C76.9879 13.9205 77.1129 14.1847 77.3629 14.4006C77.6129 14.6165 78.0419 14.7898 78.6499 14.9205L81.0192 15.3977C82.2919 15.6591 83.2408 16.0795 83.8658 16.6591C84.4908 17.2386 84.8033 18 84.8033 18.9432C84.8033 19.8011 84.5504 20.554 84.0447 21.2017C83.5447 21.8494 82.8572 22.3551 81.9822 22.7188C81.1129 23.0767 80.1101 23.2557 78.9737 23.2557C77.2408 23.2557 75.8601 22.8949 74.8317 22.1733C73.8089 21.446 73.2095 20.4574 73.0334 19.2074L76.6044 19.0199C76.7124 19.5483 76.9737 19.9517 77.3885 20.2301C77.8033 20.5028 78.3345 20.6392 78.9822 20.6392C79.6186 20.6392 80.13 20.517 80.5163 20.2727C80.9084 20.0227 81.1072 19.7017 81.1129 19.3097C81.1072 18.9801 80.968 18.7102 80.6953 18.5C80.4226 18.2841 80.0021 18.1193 79.4339 18.0057L77.1669 17.554C75.8885 17.2983 74.9368 16.8551 74.3118 16.2244C73.6925 15.5937 73.3828 14.7898 73.3828 13.8125C73.3828 12.9716 73.6101 12.2472 74.0646 11.6392C74.5249 11.0312 75.1697 10.5625 75.9993 10.233C76.8345 9.90341 77.8118 9.73864 78.9311 9.73864C80.5845 9.73864 81.8857 10.0881 82.8345 10.7869C83.7891 11.4858 84.3459 12.4375 84.505 13.642Z" fill="#494D53"/>
</svg>
