<svg width="50" height="50" viewBox="0 0 50 50" fill="none" xmlns="http://www.w3.org/2000/svg">
<g clip-path="url(#clip0_2760_234930)">
<rect width="50" height="50" rx="25" fill="white"/>
<path d="M50 25C50 38.8086 38.8086 50 25 50C11.1914 50 0 38.8086 0 25C0 11.1914 11.1914 0 25 0C38.8086 0 50 11.1914 50 25ZM18.3887 14.3652C17.6465 14.7754 17.1875 15.5664 17.1875 16.4062V33.5938C17.1875 34.4434 17.6465 35.2246 18.3887 35.6348C19.1309 36.0449 20.0293 36.0352 20.7617 35.5859L34.8242 26.9922C35.5176 26.5625 35.9473 25.8105 35.9473 24.9902C35.9473 24.1699 35.5176 23.418 34.8242 22.9883L20.7617 14.3945C20.0391 13.9551 19.1309 13.9355 18.3887 14.3457V14.3652Z" fill="#1F77FC"/>
</g>
<defs>
<clipPath id="clip0_2760_234930">
<rect width="50" height="50" rx="25" fill="white"/>
</clipPath>
</defs>
</svg>
