<svg width="5" height="19" viewBox="0 0 5 19" fill="none" xmlns="http://www.w3.org/2000/svg">
<path d="M2.49574 15.108C2.18513 15.108 1.91809 14.9981 1.6946 14.7784C1.47112 14.5549 1.35938 14.286 1.35938 13.9716C1.35938 13.661 1.47112 13.3958 1.6946 13.1761C1.91809 12.9527 2.18513 12.8409 2.49574 12.8409C2.80634 12.8409 3.07339 12.9527 3.29688 13.1761C3.52036 13.3958 3.6321 13.661 3.6321 13.9716C3.6321 14.1799 3.57907 14.3712 3.47301 14.5455C3.37074 14.7159 3.23438 14.8523 3.06392 14.9545C2.89347 15.0568 2.70407 15.108 2.49574 15.108ZM2.49574 8.75568C2.18513 8.75568 1.91809 8.64394 1.6946 8.42045C1.47112 8.19697 1.35938 7.92992 1.35938 7.61932C1.35938 7.30871 1.47112 7.04356 1.6946 6.82386C1.91809 6.60038 2.18513 6.48864 2.49574 6.48864C2.80634 6.48864 3.07339 6.60038 3.29688 6.82386C3.52036 7.04356 3.6321 7.30871 3.6321 7.61932C3.6321 7.82765 3.57907 8.01894 3.47301 8.19318C3.37074 8.36364 3.23438 8.5 3.06392 8.60227C2.89347 8.70455 2.70407 8.75568 2.49574 8.75568Z" fill="#1F77FC"/>
</svg>
